<svg width="30" height="30" viewBox="0 0 30 30" fill="none" xmlns="http://www.w3.org/2000/svg">
<path fill-rule="evenodd" clip-rule="evenodd" d="M13.9612 2C12.2132 2.00015 10.4905 2.41832 8.937 3.21963C7.38347 4.02093 6.04408 5.18214 5.03059 6.60636C4.0171 8.03058 3.3589 9.67652 3.11089 11.4069C2.86289 13.1372 3.03228 14.9017 3.60492 16.5533C4.17757 18.2049 5.13687 19.6955 6.40279 20.9009C7.66871 22.1064 9.20454 22.9916 10.8821 23.4827C12.5598 23.9738 14.3305 24.0566 16.0466 23.7243C17.7627 23.3919 19.3745 22.6539 20.7474 21.5719L25.4572 26.2818C25.7005 26.5167 26.0263 26.6467 26.3644 26.6437C26.7025 26.6408 27.026 26.5052 27.2651 26.2661C27.5042 26.0269 27.6399 25.7035 27.6428 25.3653C27.6457 25.0272 27.5158 24.7014 27.2808 24.4582L22.571 19.7483C23.8452 18.1319 24.6385 16.1894 24.8603 14.1431C25.082 12.0968 24.7232 10.0295 23.8248 8.1776C22.9265 6.32574 21.5249 4.76421 19.7805 3.6717C18.0362 2.5792 16.0195 1.99986 13.9612 2ZM5.57839 12.9621C5.57839 10.7389 6.46158 8.60667 8.03366 7.03459C9.60574 5.46251 11.7379 4.57933 13.9612 4.57933C16.1845 4.57933 18.3167 5.46251 19.8887 7.03459C21.4608 8.60667 22.344 10.7389 22.344 12.9621C22.344 15.1854 21.4608 17.3176 19.8887 18.8897C18.3167 20.4618 16.1845 21.3449 13.9612 21.3449C11.7379 21.3449 9.60574 20.4618 8.03366 18.8897C6.46158 17.3176 5.57839 15.1854 5.57839 12.9621Z" fill="black"/>
</svg>
