<svg width="24" height="24" viewBox="0 0 24 24" fill="none" xmlns="http://www.w3.org/2000/svg">
<path d="M11 13V15H9V13H11Z" fill="black"/>
<path fill-rule="evenodd" clip-rule="evenodd" d="M6.48001 4C6.18024 4.00004 5.88432 4.06746 5.61412 4.19728C5.34392 4.3271 5.10636 4.51599 4.91901 4.75L1.86901 8.563C1.08301 9.545 1.78301 11 3.04001 11H4.00001V18C4.00001 18.5304 4.21072 19.0391 4.58579 19.4142C4.96087 19.7893 5.46957 20 6.00001 20H14C14.5304 20 15.0391 19.7893 15.4142 19.4142C15.7893 19.0391 16 18.5304 16 18V11H18V19C18 19.2652 18.1054 19.5196 18.2929 19.7071C18.4804 19.8946 18.7348 20 19 20C19.2652 20 19.5196 19.8946 19.7071 19.7071C19.8947 19.5196 20 19.2652 20 19V11H20.96C22.218 11 22.917 9.545 22.131 8.563L19.081 4.751C18.8938 4.51681 18.6562 4.32772 18.386 4.19773C18.1158 4.06773 17.8199 4.00016 17.52 4H6.48001ZM8.00001 11C7.73479 11 7.48044 11.1054 7.2929 11.2929C7.10536 11.4804 7.00001 11.7348 7.00001 12V16C7.00001 16.2652 7.10536 16.5196 7.2929 16.7071C7.48044 16.8946 7.73479 17 8.00001 17H12C12.2652 17 12.5196 16.8946 12.7071 16.7071C12.8947 16.5196 13 16.2652 13 16V12C13 11.7348 12.8947 11.4804 12.7071 11.2929C12.5196 11.1054 12.2652 11 12 11H8.00001Z" fill="black"/>
</svg>
