<svg width="30" height="30" viewBox="0 0 30 30" fill="none" xmlns="http://www.w3.org/2000/svg">
<path d="M7.43129 24.0078C8.79539 21.3323 11.5766 19.5 14.7857 19.5C17.9701 19.5 20.733 21.3042 22.1083 23.9459M17.5357 12.9523C17.5357 14.5435 16.2458 15.8333 14.6548 15.8333C13.0637 15.8333 11.7738 14.5435 11.7738 12.9523C11.7738 11.3613 13.0637 10.0714 14.6548 10.0714C16.2458 10.0714 17.5357 11.3613 17.5357 12.9523ZM14.7857 26.5714C8.27664 26.5714 3 21.2947 3 14.7857C3 8.27664 8.27664 3 14.7857 3C21.2947 3 26.5714 8.27664 26.5714 14.7857C26.5714 21.2947 21.2947 26.5714 14.7857 26.5714Z" stroke="black" stroke-width="2" stroke-linecap="round" stroke-linejoin="round"/>
</svg>
