<svg width="14" height="14" viewBox="0 0 14 14" fill="none" xmlns="http://www.w3.org/2000/svg">
<path d="M12.3298 26.625C13.4657 26.625 14.3866 25.7041 14.3866 24.5682C14.3866 23.4322 13.4657 22.5114 12.3298 22.5114C11.1938 22.5114 10.2729 23.4322 10.2729 24.5682C10.2729 25.7041 11.1938 26.625 12.3298 26.625Z" stroke="black" stroke-width="2"/>
<path d="M21.9283 26.625C23.0643 26.625 23.9852 25.7041 23.9852 24.5682C23.9852 23.4322 23.0643 22.5114 21.9283 22.5114C20.7924 22.5114 19.8715 23.4322 19.8715 24.5682C19.8715 25.7041 20.7924 26.625 21.9283 26.625Z" stroke="black" stroke-width="2"/>
<path d="M3.41693 4H6.15936L10.9641 19.0833H21.9283" stroke="black" stroke-width="2" stroke-linecap="round" stroke-linejoin="round"/>
<path d="M9.8945 15.6554L7.25629 7.4281H24.406C24.5147 7.42797 24.6219 7.45368 24.7187 7.50311C24.8155 7.55254 24.8992 7.62428 24.9628 7.71241C25.0264 7.80054 25.0682 7.90254 25.0846 8.00998C25.101 8.11742 25.0917 8.22723 25.0574 8.33036L22.7716 15.1864C22.7261 15.3229 22.6389 15.4416 22.5222 15.5258C22.4056 15.6099 22.2654 15.6553 22.1216 15.6554H9.8945Z" stroke="black" stroke-width="2" stroke-linecap="round" stroke-linejoin="round"/>
</svg>
