<?xml version="1.0" encoding="utf-8" ?>
<svg xmlns="http://www.w3.org/2000/svg" xmlns:xlink="http://www.w3.org/1999/xlink" width="1024" height="1024">
	<path fill="#6B1DAC" d="M0 0L1024 0L1024 198.291L1024 213.016L1024 228.924L1024 237.983L1024 264.112L1024 273.559L1024 308.384L1024 335.6L1024 745.683L1024 767.781L1024 801.344L1024 833.87L1024 891.016L1024 931.415L1024 1024L949.234 1024L918.557 1024L878.623 1024L836.685 1024L742.772 1024L711.169 1024L528.245 1024L496.172 1024L316.104 1024L281.955 1024L191.456 1024L142.884 1024L99.4516 1024L67.0847 1024L0 1024L0 946.073L0 908.281L0 858.847L0 831.242L0 727.921L0 660.395L0 619.238L0 610.025L0 586.313L0 577.572L0 531.978L0 495.631L0 396.945L0 371.595L0 333.689L0 296.246L0 0Z"/>
	<path fill="white" d="M1024 273.559L1024 308.384C1017.94 311.234 1012.2 314.732 1006.08 317.506C992.009 313.634 977.663 310.345 963.507 306.753C971.069 301.096 979.617 296.611 987.862 292.05C999.781 285.455 1011.52 279.075 1024 273.559Z"/>
	<path fill="white" d="M983.561 767.688C984.395 767.547 984.635 767.575 985.424 767.76C985.172 772.487 980.805 780.996 978.91 785.679C959.846 832.79 924.54 886.17 889.603 923.014C888.043 921.863 886.311 920.921 884.645 919.93C882.654 919.062 880.546 918.508 878.466 917.889C920.874 873.741 949.973 825.606 973.978 769.572C977.158 768.714 980.306 768.172 983.561 767.688Z"/>
	<path fill="white" d="M0 586.313C24.9583 592.223 51.0152 596.397 76.474 599.586C86.9762 600.902 97.617 601.495 108.083 602.991C103.71 610.613 99.259 618.2 94.9736 625.871C62.8237 622.429 31.4669 617.678 0 610.025L0 586.313Z"/>
	<path fill="white" d="M1024 237.983L1024 264.112C1012.78 267.539 959.656 295.888 952.084 303.626L915.968 294.864C921.936 290.487 928.996 287.018 935.352 283.177C963.655 266.071 993.052 249.833 1024 237.983Z"/>
	<path fill="white" d="M17.2613 699.305C18.819 703.567 19.3431 708.76 20.3488 713.234C22.6249 723.359 25.1476 733.792 28.5408 743.599C34.0735 759.59 39.8324 775.844 46.9762 791.19C50.6658 799.115 55.1722 806.763 59.4317 814.392Q65.7074 825.656 72.6012 836.552Q79.495 847.448 86.9855 857.943Q94.476 868.438 102.54 878.5Q110.604 888.561 119.216 898.157C126.16 905.777 133.627 912.957 140.929 920.232C138.569 922.43 136.764 925.514 134.217 927.4L133.258 927.131C121.042 918.131 110.533 905.265 100.745 893.734Q96.5057 888.818 92.4189 883.774Q88.3321 878.73 84.4016 873.563Q80.471 868.397 76.7004 863.113Q72.9299 857.828 69.3228 852.431Q65.7156 847.034 62.2754 841.529Q58.8352 836.023 55.565 830.416Q52.2948 824.808 49.1978 819.103Q46.1008 813.397 43.1798 807.6Q40.2589 801.802 37.5167 795.918Q34.7745 790.034 32.2137 784.069Q29.6529 778.104 27.2758 772.063Q24.8988 766.022 22.7077 759.911Q20.5166 753.801 18.5135 747.626Q16.5105 741.451 14.6973 735.218Q12.8842 728.984 11.2626 722.698Q9.6411 716.413 8.21269 710.08C11.3934 706.594 14.3482 703.013 17.2613 699.305Z"/>
	<path fill="white" d="M0 619.238Q25.8772 624.788 51.9772 629.171C64.4666 631.161 77.0413 632.54 89.5343 634.473Q80.4157 650.183 71.6329 666.084C47.7095 664.648 23.8762 662.425 0 660.395L0 619.238Z"/>
	<path fill="white" d="M166.824 281.381L167.284 281.824C168.117 285.847 166.925 291.446 166.326 295.561C153.587 306.981 140.265 317.761 128.062 329.767Q121.037 336.685 114.326 343.908Q107.616 351.131 101.233 358.645Q94.8506 366.16 88.8084 373.95Q82.7661 381.741 77.0762 389.793Q71.3864 397.844 66.0601 406.141Q60.7338 414.438 55.7818 422.963Q50.8297 431.488 46.2616 440.225Q41.6934 448.962 37.5183 457.894C29.2746 475.933 22.7238 494.307 16.1326 512.986C12.2197 514.75 8.45709 516.685 4.69434 518.749C4.20157 518.194 4.17214 517.993 4.23308 517.217C4.76762 510.407 12.1193 491.097 14.7495 483.592C21.0401 465.642 29.2832 448.36 38.2834 431.63Q41.2148 426.134 44.2947 420.721Q47.3745 415.307 50.6005 409.979Q53.8265 404.651 57.1962 399.413Q60.566 394.174 64.077 389.03Q67.588 383.885 71.2377 378.838Q74.8873 373.791 78.673 368.844Q82.4586 363.898 86.3774 359.057Q90.2961 354.216 94.3452 349.483Q98.3942 344.75 102.571 340.129Q106.747 335.508 111.047 331.003Q115.348 326.497 119.769 322.11Q124.191 317.723 128.73 313.458Q133.269 309.193 137.922 305.053Q142.576 300.913 147.34 296.901Q152.105 292.889 156.977 289.009Q161.848 285.128 166.824 281.381Z"/>
	<path fill="white" d="M0 858.847C31.5563 911.791 63.7397 954.79 109.617 996.441C120.324 1006.16 131.925 1014.64 142.884 1024L99.4516 1024C90.7498 1016.05 81.9024 1008.22 73.5778 999.876Q63.2327 989.411 53.4394 978.428Q43.6461 967.445 34.4306 955.973Q25.2151 944.501 16.6017 932.57Q7.98838 920.639 0 908.281L0 858.847Z"/>
	<path fill="#6B1DAC" d="M0 908.281Q7.98838 920.639 16.6017 932.57Q25.2151 944.501 34.4306 955.973Q43.6461 967.445 53.4394 978.428Q63.2327 989.411 73.5778 999.876C81.9024 1008.22 90.7498 1016.05 99.4516 1024L67.0847 1024L0 1024L0 946.073L0 908.281Z"/>
	<path fill="white" d="M0 946.073C6.7628 955.416 13.4443 964.905 20.6942 973.877C34.9332 991.498 50.8404 1008.2 67.0847 1024L0 1024L0 946.073Z"/>
	<path fill="white" d="M651.585 89.3946C651.831 89.4129 652.076 89.4346 652.32 89.4646C663.116 90.7909 680.093 96.9774 690.704 100.489C702.002 104.228 713.41 107.89 724.523 112.149Q733.204 115.511 741.778 119.134Q750.353 122.757 758.814 126.639Q767.275 130.521 775.614 134.658Q783.953 138.795 792.163 143.184Q800.373 147.572 808.445 152.207Q816.518 156.842 824.446 161.721Q832.375 166.599 840.151 171.715Q847.928 176.832 855.546 182.182C861.684 186.473 872.777 192.507 877.059 197.968L833.228 198.516C812.603 186.072 792.607 172.997 771.173 161.886C746.539 149.116 720.813 138.19 694.999 128.063C689.281 125.819 683.427 123.95 677.711 121.689C669.449 110.535 660.276 100.197 651.585 89.3946Z"/>
	<path fill="white" d="M907.535 211.28C917.187 210.652 926.975 210.934 936.642 211.084C893.257 225.692 857.027 245.432 817.579 268.214C808.737 266.805 800.158 263.711 791.608 261.13L754.723 250.084C739.786 244.791 724.611 240.434 709.804 234.749Q720.551 225.617 730.879 216.013C756.062 215.928 781.339 214.688 806.513 213.922L907.535 211.28Z"/>
	<path fill="white" d="M206.938 436.754L207.168 436.936C207.047 439.937 157.651 519.605 151.097 531.331C137.639 529.705 123.698 529.641 110.155 528.647Q74.5038 526.223 39.119 521.243C35.6203 520.346 31.4855 520.217 27.8736 519.75C35.9976 514.826 44.9387 511.132 53.4462 506.912C72.4882 497.467 91.6408 488.227 110.574 478.565L164.692 450.988C172.052 447.176 179.332 441.907 187.043 438.972C193.107 436.664 200.521 437.04 206.938 436.754Z"/>
	<path fill="white" d="M829.868 271.962C836.917 266.62 845.277 262.445 852.992 258.157C883.189 241.376 914.898 225.62 948.285 216.303C953.937 214.725 959.68 212.986 965.507 212.214C971.859 211.372 978.544 211.773 984.952 211.835Q1004.49 212.021 1024 213.016L1024 228.924C1012.93 231.89 1001.86 237.398 991.561 242.384Q961.161 257.458 931.896 274.631C923.597 279.567 912.604 288.007 904.098 291.292C895.937 290.123 887.814 287.446 879.82 285.402Q854.721 279.14 829.868 271.962Z"/>
	<path fill="white" d="M153.094 939.666C179.948 941.166 202.583 941.187 229.277 936.328C234.289 970.862 258.783 999.525 281.955 1024L191.456 1024C171.351 1004.64 153.412 976.365 152.906 947.711Q152.848 943.685 153.094 939.666Z"/>
	<path fill="white" d="M10.2324 526.462C17.3638 526.459 24.6734 527.72 31.7563 528.547L64.5992 532.373C91.8311 535.704 119.631 538.167 147.074 538.555C135.307 557.154 124.664 576.456 112.682 594.887C80.5872 591.569 48.8881 587.76 17.2748 581.149C11.5596 579.954 5.64211 579.032 0 577.572L0 531.978C3.52029 530.308 6.86642 528.422 10.2324 526.462Z"/>
	<path fill="white" d="M797.402 936.781C810.187 936.704 823.16 938.192 835.938 938.883C844.145 939.328 867.411 939.368 873.447 941.307C875.705 944.738 873.179 955.045 872.366 958.917C867.233 983.378 853.462 1005.77 836.685 1024L742.772 1024C767.283 998.742 787.11 970.708 797.402 936.781Z"/>
	<path fill="white" d="M402.965 81.8771C395.995 84.7123 388.818 87.0116 381.778 89.6631C363.738 96.4565 345.235 103.708 327.908 112.178C313.214 119.361 298.281 126.854 284.235 135.238C274.438 141.085 265.028 147.898 254.995 153.292C247.617 157.259 239.836 160.605 232.341 164.366Q211.709 174.76 191.761 186.415C149.499 211.44 110.636 243.692 75.7088 278.077C65.6564 287.973 55.6163 297.96 46.5494 308.784Q30.3755 328.405 15.5896 349.092C10.3161 356.525 5.40051 364.261 0 371.595L0 333.689Q4.86286 326.728 9.92426 319.91Q14.9857 313.092 20.2414 306.423Q25.4972 299.753 30.9429 293.238Q36.3887 286.723 42.0199 280.368Q47.6511 274.012 53.4631 267.822Q59.2751 261.631 65.263 255.611Q71.251 249.59 77.4099 243.744Q83.5688 237.899 89.8936 232.233Q96.2185 226.568 102.704 221.087Q109.189 215.606 115.83 210.314Q122.471 205.022 129.261 199.923Q136.051 194.825 142.986 189.925Q149.92 185.024 156.993 180.325Q164.066 175.627 171.271 171.134Q178.477 166.641 185.808 162.357Q193.14 158.073 200.592 154.003C211.47 148.001 222.695 142.629 233.854 137.173Q243.844 132.264 254 127.708Q264.156 123.153 274.466 118.956Q284.776 114.759 295.227 110.927Q305.677 107.095 316.256 103.631Q326.834 100.168 337.528 97.0774Q348.221 93.9871 359.017 91.2739Q369.812 88.5606 380.696 86.2277Q391.58 83.8948 402.539 81.9451L402.965 81.8771Z"/>
	<path fill="white" d="M878.623 1024Q884.343 1019.1 889.933 1014.04Q895.522 1008.99 900.978 1003.79Q906.434 998.597 911.752 993.26Q917.07 987.922 922.246 982.447Q927.423 976.972 932.454 971.364Q937.486 965.756 942.369 960.018Q947.253 954.279 951.984 948.416Q956.716 942.552 961.292 936.567Q965.869 930.581 970.287 924.478Q974.706 918.375 978.964 912.158Q983.221 905.942 987.314 899.616Q991.408 893.29 995.334 886.86Q999.261 880.429 1003.02 873.898Q1006.78 867.367 1010.36 860.74Q1013.95 854.113 1017.36 847.394Q1020.77 840.675 1024 833.87L1024 891.016L1024 931.415L1024 1024L949.234 1024L918.557 1024L878.623 1024Z"/>
	<path fill="#6B1DAC" d="M1024 891.016L1024 931.415C1017.92 940.51 1012.14 949.765 1005.73 958.641C996.369 971.615 985.944 984.125 975.44 996.191Q967.649 1005.16 959.252 1013.57C956.032 1016.85 951.869 1020.3 949.234 1024L918.557 1024C928.411 1015.17 937.404 1005.55 946.378 995.849Q957.592 983.953 968.082 971.414Q978.572 958.875 988.3 945.736Q998.028 932.597 1006.96 918.905Q1015.89 905.213 1024 891.016Z"/>
	<path fill="white" d="M1024 931.415L1024 1024L949.234 1024C951.869 1020.3 956.032 1016.85 959.252 1013.57Q967.649 1005.16 975.44 996.191C985.944 984.125 996.369 971.615 1005.73 958.641C1012.14 949.765 1017.92 940.51 1024 931.415Z"/>
	<path fill="white" d="M664.27 761.368C666.248 763.732 667.344 767.744 668.953 770.499C674.468 779.943 682.016 788.839 690.317 795.924C702.316 806.164 715.916 812.874 729.554 820.51C753.02 833.651 781.789 851.567 793.658 876.619C799.562 889.082 800.372 900.558 795.768 913.47C787.017 904.382 772.865 900.558 761.16 896.798C745.658 892.013 705.092 878.665 691.235 879.779C679.762 880.701 674.779 895.001 667.956 902.72C667 901.923 666.059 901.117 665.181 900.232C659.202 894.2 654.636 885.598 651.02 878.003C637.231 849.038 632.877 820.775 632.84 789.022C644.326 780.755 654.349 771.425 664.27 761.368Z"/>
	<path fill="white" d="M562.417 75.7099C570.517 74.8892 579.536 75.5526 587.502 77.045C621.63 83.4383 642.528 112.372 661.363 138.864C667.893 148.048 674.624 157.111 680.989 166.409C676.134 170.972 670.921 175.073 665.724 179.235C650.687 159.973 638.846 137.8 622.197 119.796C608.828 105.338 591.287 95.0085 571.297 94.3426C554.059 93.7684 536.489 97.112 519.502 99.6513C425.064 113.769 308.533 156.748 237.944 222.456C233.681 226.513 229.391 230.885 225.914 235.636C200.698 270.099 211.543 327.304 217.585 366.665C210.894 367.628 204.317 369.24 197.784 370.942C196.221 364.354 195.649 357.271 194.753 350.552C193.228 339.122 191.61 327.642 190.73 316.141C188.747 290.21 189.611 260.961 202.03 237.55C205.516 230.98 210.045 225.025 214.892 219.406C234.418 196.773 261.7 177.471 287.208 162.12Q295.034 157.485 302.99 153.078Q310.945 148.67 319.025 144.494Q327.104 140.317 335.301 136.375Q343.497 132.433 351.804 128.729Q360.111 125.024 368.521 121.561Q376.931 118.097 385.437 114.878Q393.943 111.658 402.538 108.684Q411.134 105.711 419.811 102.987Q428.489 100.262 437.241 97.7885Q445.994 95.315 454.814 93.0947Q463.634 90.8744 472.514 88.9091Q481.394 86.9438 490.327 85.2351Q499.261 83.5264 508.239 82.0758Q517.218 80.6251 526.235 79.4337Q535.252 78.2424 544.299 77.3112Q553.347 76.3801 562.417 75.7099Z"/>
	<path fill="white" d="M250.46 924.224Q289.969 913.543 329.1 901.552C365.727 953.068 404.496 983.465 461.178 1010.68Q471.798 1015.69 482.941 1019.39C487.103 1020.81 492.364 1021.9 496.172 1024L316.104 1024C291.209 1003.33 253.738 963.857 250.603 930.493C250.408 928.423 250.408 926.302 250.46 924.224Z"/>
	<path fill="white" d="M695.071 902.209C719.705 907.398 755.951 914.99 777.588 926.945C773.936 949.953 756.457 976.353 741.079 993.785C731.661 1004.46 721.291 1014.02 711.169 1024L528.245 1024C537.592 1020.73 547.066 1018 556.26 1014.27C601.453 995.957 644.428 967.08 675.623 929.33C682.739 920.719 688.871 911.482 695.071 902.209Z"/>
	<path fill="white" d="M819.327 467.909L820.362 468.333C820.741 469.009 821.081 469.627 821.358 470.353C825.169 480.331 827.198 491.092 828.367 501.668C835.188 563.353 798.609 607.934 776.17 660.906C760.218 698.563 746.541 744.392 762.889 784.164C769.667 800.653 780.876 813.933 797.598 820.863C824.658 832.076 847.359 820.5 872.196 810.343C857.386 833.526 840.262 854.384 821.381 874.346L818.225 877.719C816.11 872.477 813.981 867.231 811.125 862.338C805.793 853.199 798.87 845.433 791.295 838.12C770.603 818.142 749.767 807.176 725.166 793.172C710.894 785.047 695.645 774.246 688.473 758.952C686.012 753.702 684.591 748.099 683.055 742.53C688.478 735.677 694.533 729.495 699.731 722.409C719.94 694.858 738.574 657.022 743.235 623.049C749.131 619.229 755.521 616.432 760.35 611.133C764.189 606.92 766.553 600.944 768.557 595.677C773.971 581.45 777.25 566.413 781.453 551.803C785.934 536.23 791.365 520.702 794.78 504.856C796.318 497.722 797.67 490.379 797.453 483.065C803.894 477.284 812.086 472.617 819.327 467.909Z"/>
	<path fill="white" d="M899.02 305.994C910.324 308.195 922.387 310.92 933.221 314.779C926.641 320.341 918.591 324.595 911.283 329.137C903.104 334.221 895.119 339.661 887.111 345.01Q844.646 373.808 803 403.778C764.251 431.284 725.811 459.285 685.722 484.835C507.641 598.329 355.805 642.137 144.088 630.711Q127.9 629.863 111.763 628.334C115.111 620.159 121.106 612.085 125.722 604.512C137.676 606.576 150.346 606.608 162.463 607.112C192.971 608.382 223.017 608.224 253.511 606.782Q259.382 606.483 265.249 606.098Q271.115 605.712 276.975 605.24Q282.835 604.767 288.687 604.208Q294.54 603.649 300.383 603.003Q306.226 602.356 312.059 601.624Q317.893 600.891 323.714 600.072Q329.536 599.253 335.345 598.348Q341.154 597.443 346.948 596.451Q352.743 595.46 358.523 594.383Q364.302 593.306 370.065 592.143Q375.828 590.98 381.573 589.732Q387.318 588.484 393.044 587.151Q398.769 585.818 404.475 584.4Q410.18 582.982 415.864 581.48Q421.548 579.978 427.209 578.391Q432.87 576.805 438.506 575.135Q444.143 573.465 449.754 571.711Q455.366 569.958 460.951 568.121Q466.535 566.284 472.092 564.365Q477.649 562.446 483.177 560.445Q488.705 558.443 494.202 556.36Q499.7 554.277 505.166 552.112Q510.632 549.948 516.065 547.703Q521.499 545.458 526.898 543.132Q532.297 540.807 537.662 538.401Q543.026 535.996 548.354 533.511Q553.682 531.026 558.973 528.463Q564.264 525.9 569.516 523.258Q574.768 520.617 579.98 517.898Q585.193 515.178 590.364 512.382Q595.536 509.586 600.665 506.714Q605.795 503.841 610.881 500.893Q646.647 480.171 681.038 457.24Q750.893 410.928 818.715 361.687C845.243 342.735 872.347 324.713 899.02 305.994Z"/>
	<path fill="white" d="M702.081 164.936C708.702 170.915 722.868 187.144 728.003 194.771Q726.865 196.468 725.579 198.055C718.847 206.262 710.588 213.094 702.438 219.831C687.687 232.025 672.453 243.013 656.764 253.927C625.243 275.855 592.203 294.825 558.199 312.582C460.817 363.434 359.848 398.935 251.15 415.83C234.976 418.344 218.814 420.832 202.514 422.405C196.327 423.326 190.096 423.922 183.904 424.872C182.515 411.815 179.632 398.919 178.281 385.85Q205.233 382.9 232.003 378.599Q238.682 377.556 245.347 376.422Q252.012 375.289 258.66 374.066Q265.309 372.843 271.941 371.531Q278.572 370.219 285.186 368.817Q291.799 367.415 298.393 365.925Q304.987 364.434 311.56 362.855Q318.133 361.276 324.685 359.608Q331.236 357.941 337.765 356.185Q344.293 354.43 350.797 352.586Q357.301 350.743 363.78 348.812Q370.258 346.881 376.711 344.863Q383.163 342.845 389.587 340.741Q396.011 338.636 402.407 336.445Q408.802 334.254 415.167 331.977Q421.533 329.7 427.867 327.338Q434.201 324.975 440.502 322.528Q446.804 320.08 453.072 317.548Q459.34 315.016 465.574 312.399Q471.807 309.783 478.005 307.083Q484.202 304.383 490.363 301.6Q496.524 298.816 502.647 295.95Q508.769 293.084 514.853 290.136Q520.936 287.188 526.98 284.158Q533.023 281.128 539.025 278.017Q545.027 274.906 550.986 271.714Q556.946 268.523 562.862 265.251Q568.777 261.98 574.649 258.629Q580.52 255.278 586.346 251.848Q592.172 248.418 597.95 244.91Q603.729 241.403 609.461 237.817Q615.192 234.232 620.874 230.57Q626.557 226.907 632.189 223.169C654.889 207.884 686.17 187.012 702.081 164.936Z"/>
	<path fill="white" d="M945.096 317.421C958.629 320.209 972.039 324.054 985.362 327.702C984.931 328.17 984.508 328.603 984.032 329.026C979.381 333.163 973.122 336.227 967.77 339.408C957.213 345.682 946.482 351.771 936.104 358.332Q892.408 386.343 850.205 416.556C839.335 424.278 828.752 432.397 817.928 440.181C792.365 458.564 766.304 476.745 740.046 494.122C721.525 506.378 702.615 517.633 683.637 529.128Q652.343 548.466 620.057 566.099C514.745 622.428 402.628 659.179 283.21 668.794C231.478 672.959 178.96 671.876 127.164 669.598C114.572 669.464 101.462 668.469 88.938 667.028C92.453 659.07 101.694 643.525 106.81 636.479Q130.083 638.749 153.439 639.904Q176.794 641.059 200.178 641.096Q223.562 641.134 246.921 640.053Q270.279 638.973 293.56 636.777Q317.131 634.675 340.546 631.25Q363.962 627.824 387.147 623.086C514.052 596.251 629.037 534.844 735.342 462.203C791.206 424.03 845.227 383.236 901.597 345.763C915.981 336.201 930.302 326.323 945.096 317.421Z"/>
	<path fill="white" d="M413.829 806.192C433.473 817.328 452.876 829.088 474.257 836.667C503.613 847.073 525.069 847.764 554.168 836.54Q569.208 830.804 583.226 822.891C591.99 817.938 600.459 811.598 609.544 807.343C609.679 807.28 609.816 807.219 609.952 807.157C611.533 837.393 619.257 868.555 634.328 895.003C639.924 904.824 646.787 914.115 653.651 923.084C639.332 937.786 623.734 950.719 606.988 962.588C578.197 982.939 545.62 995.99 512.078 1006.11C502.109 1002.82 492.049 999.642 482.319 995.688C442.108 979.351 402.291 954.328 373.098 921.902C401.793 885.444 411.034 851.607 413.829 806.192Z"/>
	<path fill="white" d="M303.812 691.25C304.258 691.222 304.72 691.051 305.152 691.167C306.697 691.581 311.324 700.413 312.533 702.397Q315.35 707.12 318.337 711.737Q321.323 716.355 324.476 720.861Q327.629 725.366 330.943 729.754Q334.258 734.143 337.73 738.407Q341.201 742.672 344.826 746.807Q348.451 750.943 352.224 754.944Q355.996 758.945 359.912 762.806Q363.828 766.668 367.881 770.384C374.901 776.846 382.456 782.682 389.616 788.984C393.554 826.469 380.256 876.026 357.696 906.089C352.713 899.696 344.138 884.892 337.818 880.946C330.299 876.251 315.364 883.346 307.618 885.416C302.786 886.708 297.702 887.7 292.704 888.004C276.387 888.994 260.958 887.435 245.19 883.197Q240.982 881.832 236.808 880.368Q234.863 879.689 232.936 878.962Q231.008 878.234 229.099 877.46Q227.19 876.685 225.301 875.863Q223.412 875.041 221.544 874.172Q219.676 873.304 217.83 872.389Q215.984 871.475 214.162 870.514Q212.339 869.554 210.541 868.549Q208.743 867.544 206.97 866.494Q205.197 865.445 203.451 864.352Q201.705 863.259 199.986 862.122Q198.268 860.986 196.578 859.808Q194.888 858.629 193.228 857.409Q191.569 856.189 189.939 854.928Q188.31 853.667 186.713 852.367Q185.115 851.066 183.551 849.725Q181.986 848.385 180.455 847.007Q178.925 845.628 177.428 844.212Q175.932 842.796 174.472 841.343Q173.011 839.89 171.587 838.401Q170.163 836.913 168.777 835.389Q167.39 833.866 166.042 832.308Q164.693 830.751 163.384 829.16Q162.075 827.57 160.805 825.947Q159.536 824.325 158.307 822.671Q157.078 821.018 155.891 819.334Q154.703 817.651 153.558 815.938Q152.413 814.226 151.311 812.485Q150.208 810.745 149.15 808.978Q148.091 807.21 147.076 805.418Q146.062 803.625 145.092 801.807Q144.122 799.99 143.198 798.148Q142.273 796.307 141.395 794.444C128.098 766.303 123.265 724.31 133.93 694.443C141.943 694.498 150.036 695.237 158.048 695.601Q176.526 696.339 195.019 696.491Q249.543 696.513 303.812 691.25Z"/>
	<path fill="white" d="M811.378 283.415C819.616 284.241 831.937 288.542 840.23 290.737C856.243 294.976 872.362 298.783 888.408 302.887C882.262 307.595 875.479 311.68 869.014 315.94Q857.669 323.493 846.556 331.382L760.971 392.295C734.534 410.831 708.102 429.1 681.178 446.923C676.931 449.735 672.939 452.958 668.652 455.695C626.566 482.563 583.138 507.813 537.833 528.899Q528.207 533.362 518.46 537.556Q508.713 541.749 498.854 545.67Q488.994 549.591 479.03 553.237Q469.065 556.882 459.003 560.249Q448.94 563.616 438.788 566.702Q428.637 569.788 418.403 572.59Q408.169 575.393 397.861 577.91Q387.553 580.427 377.18 582.656Q366.806 584.885 356.374 586.825Q345.942 588.765 335.461 590.415Q324.979 592.064 314.456 593.421Q303.932 594.778 293.375 595.842Q282.818 596.906 272.236 597.676Q261.653 598.447 251.053 598.922Q240.453 599.398 229.844 599.579Q219.235 599.759 208.625 599.645Q169.68 599.527 130.832 596.778C133.932 589.894 138.256 583.33 142.133 576.85C149.603 564.366 157.316 552.022 164.605 539.432C220.232 540.284 276.507 537.982 331.457 528.774C454.426 508.169 567.751 452.369 670.3 383.034Q712.524 353.875 753.948 323.591C772.929 309.798 791.429 295.805 811.378 283.415Z"/>
	<path fill="white" d="M770.093 502.535C770.321 502.78 770.327 503.163 770.425 503.483Q760.64 536.092 751.836 568.98C750.099 575.307 747.86 588.409 745.1 593.415C742.991 597.243 737.059 600.669 733.485 603.093C732.108 598.435 730.868 588.994 727.312 585.749C726.723 585.213 726.819 585.425 725.88 585.528C724.26 587.69 722.02 611.119 721.222 616.107Q719.244 628.606 715.673 640.746Q714.207 645.406 712.533 649.995Q710.859 654.584 708.981 659.093Q707.103 663.602 705.024 668.022Q702.945 672.443 700.67 676.765Q698.395 681.088 695.928 685.304Q693.461 689.52 690.807 693.621Q688.153 697.722 685.318 701.7Q682.483 705.678 679.472 709.524Q671.232 720.102 662.258 730.065Q653.285 740.029 643.623 749.326C616.377 775.092 561.021 816.042 522.6 820.682C486.161 825.084 431.042 789.991 403.242 768.386C372.187 743.512 351.771 721.601 330.733 687.689C460.246 670.171 567.715 624.964 679.745 559.314Q707.253 543.349 733.868 525.936C745.799 518.136 757.526 509.229 770.093 502.535Z"/>
	<path fill="#6B1DAC" d="M533.419 757.603C533.366 758.153 533.445 758.022 533.04 758.542C529.657 762.879 522.513 765.124 517.223 765.983C508.35 767.423 500.308 765.576 493.006 760.316C492.214 759.739 491.637 759.199 491.013 758.444C493.147 758.371 496.22 760.122 498.265 760.903C509.588 765.224 522.824 762.339 533.419 757.603Z"/>
	<path fill="#6B1DAC" d="M544.454 663.362C545.932 663.825 546.289 663.931 547.353 665.031C547.629 666.363 547.861 666.993 547.154 668.267C544.429 673.182 525.124 682.557 519.254 683.672C508.439 685.727 496.422 678.097 487.793 672.43C486.564 671.38 485.232 670.355 484.917 668.668C484.676 667.381 484.978 666.907 485.608 665.878C486.947 665.383 487.645 665.231 489.041 665.679C496.123 667.955 502.89 674.453 510.862 676.455C521.664 679.168 535.551 668.554 544.454 663.362Z"/>
	<path fill="#6B1DAC" d="M489.64 709.658C492.178 709.667 494.839 709.77 497.298 710.451C503.648 712.211 509.044 717.575 516.093 716.306C521.467 715.338 525.58 710.931 530.962 709.692C539.361 707.758 543.004 712.72 549.416 716.617C562.336 724.47 577.661 724.925 591.989 721.431C575.431 734.197 558.026 732.983 538.23 731.668C530.671 732.351 524.803 738.057 517.278 739.51C504.508 741.977 501.262 733.79 490.958 732.073C486.886 731.394 482.349 732.326 478.226 732.53C461.75 733.341 448.756 731.957 434.845 722.582C447.857 725.017 463.929 724.836 475.507 717.537C479.948 714.737 483.883 711.129 489.07 709.797C489.26 709.749 489.45 709.704 489.64 709.658Z"/>
	<path fill="white" d="M694.852 246.363C700.35 246.71 722.643 255.557 729 257.686Q748.054 263.992 767.286 269.73C778.604 273.192 789.823 276.79 801.38 279.396C793.997 285.815 785.075 290.896 777.113 296.632L722.027 336.543Q677.864 368.945 631.857 398.672Q608.926 413.129 585.222 426.28Q561.518 439.431 537.116 451.236C522.223 458.596 507.362 466.131 492.127 472.764Q485.654 475.603 479.123 478.308Q472.592 481.013 466.007 483.583Q459.423 486.153 452.786 488.586Q446.15 491.02 439.465 493.317Q432.779 495.613 426.048 497.772Q419.317 499.93 412.543 501.95Q405.769 503.969 398.955 505.848Q392.141 507.728 385.289 509.466Q378.438 511.205 371.552 512.802Q364.666 514.4 357.749 515.855Q350.832 517.31 343.886 518.622Q336.94 519.935 329.969 521.104Q322.998 522.273 316.004 523.298Q309.01 524.323 301.997 525.204Q294.983 526.085 287.953 526.821Q280.923 527.558 273.879 528.149C241.023 531.679 203.06 532.785 169.982 531.549C176.555 517.526 186.328 503.328 194.412 489.973C205.576 471.53 216.259 452.768 227.275 434.23C385.043 419.815 569.59 341.97 694.852 246.363Z"/>
	<path fill="white" d="M558.903 103.704C565.836 102.772 573.935 102.952 580.762 104.452C590.837 106.665 600.073 112.167 607.792 118.898C622.21 131.471 647.536 168.3 658.349 185.394C640.395 199.393 621.115 211.839 601.836 223.916Q589.687 231.538 577.327 238.812Q564.967 246.087 552.406 253.009Q539.845 259.93 527.094 266.494Q514.342 273.058 501.409 279.258Q488.477 285.458 475.374 291.289Q462.271 297.121 449.009 302.579Q435.746 308.037 422.335 313.118Q408.923 318.199 395.373 322.898C365.125 333.208 334.265 341.325 303.329 349.236C277.848 355.037 252.367 359.983 226.737 365.067C224.5 352.594 222.579 339.842 221.231 327.238C218.175 298.677 216.445 262.671 235.61 239.208C251.63 219.595 277.539 201.708 299.118 188.548C378.024 140.426 467.261 113.193 558.903 103.704Z"/>
	<path fill="white" d="M838.524 453.034C854.943 442.94 870.021 430.638 885.807 419.598Q921.908 394.474 959.403 371.484C980.329 358.567 1001.5 345.63 1024 335.6L1024 745.683C963.206 735.191 904.836 775.316 850.77 796.734C836.103 802.544 819.073 807.56 803.81 800.835C792.787 795.977 786.459 785.627 782.258 774.78C778.375 764.755 777.619 754.415 777.852 743.757C779.056 688.85 812.535 643.177 833.585 594.654C847.082 563.542 854.7 526.147 849.691 492.367C847.686 478.849 843.533 465.713 838.524 453.034Z"/>
	<path fill="white" d="M0 0L1024 0L1024 198.291C1007.14 197.243 990.123 197.036 973.233 196.807C953.614 196.541 934.032 196.37 914.419 197.073C904.088 190.404 894.706 182.353 884.784 175.107Q864.996 160.951 844.429 147.953Q836.973 143.163 829.384 138.585Q821.796 134.008 814.081 129.648Q806.365 125.287 798.53 121.147Q790.694 117.007 782.744 113.09Q774.795 109.173 766.737 105.484Q758.679 101.794 750.521 98.3335Q742.362 94.8734 734.108 91.6457Q725.855 88.4181 717.513 85.4255Q709.172 82.4329 700.748 79.6778Q692.325 76.9227 683.828 74.4073Q675.33 71.8919 666.764 69.6182Q658.199 67.3445 649.572 65.3143Q640.946 63.2841 632.265 61.4991Q623.585 59.7141 614.857 58.1756Q606.129 56.6372 597.362 55.3466Q588.594 54.056 579.793 53.0143C565.225 51.3681 527.038 45.7673 514.25 48.6428C511.875 49.177 509.513 49.9344 507.203 50.703C490.365 46.0516 472.018 49.4134 454.857 50.9469C360.185 59.4068 264.901 91.2789 182.325 138.109Q171.94 144.048 161.787 150.375Q151.634 156.703 141.728 163.41Q131.822 170.117 122.177 177.195Q112.532 184.272 103.161 191.709Q93.7907 199.146 84.7084 206.933Q75.6262 214.72 66.8451 222.844Q58.064 230.969 49.5967 239.42Q41.1294 247.871 32.988 256.637C21.3305 269.353 11.4112 283.411 0 296.246L0 0Z"/>
</svg>
